<?xml version="1.0" encoding="UTF-8" standalone="no"?>
<svg xmlns="http://www.w3.org/2000/svg" xmlns:xlink="http://www.w3.org/1999/xlink" viewBox="0 0 255 255" version="1.1" fill="#34495E">
  <defs>
    <g id="key">
      <rect ry="9" height="18" width="250" y="40" x="35" />
      <rect height="30" width="30" y="52" x="235" />
      <rect height="25" width="20" y="70" x="225" />
      <rect height="25" width="20" y="70" x="255" />
      <path d="m32 9 c-4.7794-19.349-40.06 27.074-27.421 39.4-11.723 11.337 25.871 59.466 28.228 40.834 5.5868 17.916 39.124-15.033 39.124-41.55 s-35.152-58.033-39.931-38.684z m0 7.5255 c12.262 0 18.951 13.558 18.951 31.158 s-6.6886 32.592-18.951 32.592-14.142-17.141-9.2975-31.875 c-5.6515-14.734-2.9644-31.875 9.2975-31.875z"
      />
    </g>
  </defs>
  <use xlink:href="#key" x="0" y="0" transform="rotate(45,0,0) translate(30,-50)"/>
  <use xlink:href="#key" x="0" y="0" transform="rotate(-45,0,0) scale(-1,1) translate(-150,130)"/>
</svg>