<?xml version="1.0" encoding="UTF-8" standalone="no"?>
<svg xmlns="http://www.w3.org/2000/svg" xmlns:xlink="http://www.w3.org/1999/xlink" viewBox="0 0 225 155" version="1.1" fill="#fff">
  <path d="M1.78 5.07L5.4 6.51L9.11 16.17L11.36 16.44L13.44 21.64L16.55 22.83L17.02 24.41L26.66 27.12L27.85 31.77C27.94 31.78 28 31.79 28.02 31.79C36.55 33.18 45.16 33.98 53.79 34.21C54.6 34.23 56.63 34.28 59.87 34.36L60.07 38.56L62.46 38.79L62.46 47L57.64 46.31L57.64 47.97C52.35 47.86 49.05 47.8 47.72 47.77C40.3 47.62 32.9 46.86 25.61 45.5C25.59 45.5 25.54 45.49 25.46 45.47L26.2 47.65L27.17 47.92L27.17 57.06L27.22 60.99L70.91 61.01L70.99 47L70.99 38.89L73.7 38.67L73.7 34.66C76.29 34.79 77.92 34.87 78.57 34.9C101.69 36.03 124.86 36.23 148.01 35.5C148.33 35.49 149.15 35.46 150.45 35.42L150.56 39.12L152.97 39.71L153.1 48.18L147.92 47.39L147.94 48.43L75.85 48.25L75.85 46.36L70.99 47L70.91 61.01L196.93 60.91L196.73 49.07L198.01 48.8L199.19 46.54C199.12 46.55 199.07 46.56 199.05 46.56C191.92 47.64 184.73 48.24 177.52 48.35C176.06 48.37 172.39 48.43 166.52 48.52L166.43 47.42L161.52 48.19L161.52 39.67L164.26 39.43L164.48 35.07C168.59 35.08 171.16 35.08 172.19 35.08C179.91 35.09 187.63 34.81 195.33 34.25C195.37 34.25 195.47 34.24 195.63 34.23L198.24 26.42L207.26 24.27L207.31 23.08L210.67 22.27L212.28 17.71L215.82 17.3L217.68 8.77L219.07 8.21L219.49 6.55L223.2 5.22L225 0C224.82 0.06 224.71 0.09 224.67 0.11C206.67 5.96 188.04 9.6 169.17 10.95C158.29 11.73 165.31 11.23 157.24 11.8C128.98 13.83 100.6 13.77 72.35 11.64C63.27 10.95 63.7 10.98 50.93 10.02C34.99 8.82 19.23 5.87 3.94 1.23C3.41 1.07 2.1 0.67 0 0.03L1.78 5.07Z"></path>
  <path d="M74.43 55.61L74.44 84.18L90.59 84.2L90.82 98.34L74.44 98.34L74.44 112.51L89.5 112.48L89.53 55.5L134.61 55.4L134.62 84.21L149.67 84.18L149.66 55.58L164.69 55.36L164.71 84.18L187.28 84.18L187.28 155L173.08 154.98L173.09 98.34L164.67 98.32L164.71 155L149.67 155L149.64 98.37L134.62 98.34L134.62 155L119.58 155L119.59 56.04L104.52 56.02L104.53 155L89.49 155L89.47 126.67L74.44 126.67L74.44 155L59.4 155L59.43 126.66L44.35 126.67L44.35 112.51L59.42 112.51L59.39 98.35L44.35 98.34L44.35 84.18L59.4 84.18L59.42 55.56L74.43 55.61Z"></path>
</svg>