<?xml version="1.0" standalone="no"?>
<!DOCTYPE svg PUBLIC "-//W3C//DTD SVG 20010904//EN"
 "http://www.w3.org/TR/2001/REC-SVG-20010904/DTD/svg10.dtd">
<svg version="1.0" xmlns="http://www.w3.org/2000/svg"
 width="16.000000pt" height="16.000000pt" viewBox="0 0 16.000000 16.000000"
 preserveAspectRatio="xMidYMid meet">
<metadata>
Created by potrace 1.11, written by Peter Selinger 2001-2013
</metadata>
<g transform="translate(0.000000,16.000000) scale(0.001778,-0.001778)"
fill="#000000" stroke="none">
<path d="M15 7558 c19 -60 49 -141 57 -154 4 -6 38 -22 75 -37 l68 -27 24 -62
c13 -35 29 -76 36 -93 7 -16 23 -57 35 -90 25 -68 39 -103 50 -125 4 -8 26
-18 50 -22 23 -4 44 -9 45 -10 2 -2 21 -48 42 -103 l40 -100 59 -23 c70 -28
72 -30 77 -62 3 -21 15 -28 83 -48 43 -13 86 -25 94 -27 28 -7 125 -34 169
-47 38 -11 46 -19 57 -52 8 -21 15 -47 17 -59 10 -52 20 -87 26 -88 3 0 15 -2
26 -4 11 -2 43 -7 70 -10 28 -3 75 -10 105 -15 51 -9 100 -14 210 -25 25 -2
63 -7 85 -9 41 -6 133 -13 260 -21 61 -4 274 -13 460 -19 l59 -1 3 -80 c2 -43
6 -81 8 -83 4 -5 29 -8 72 -11 21 -1 22 -3 21 -161 0 -88 -3 -162 -7 -164 -3
-2 -44 2 -91 9 -47 7 -87 11 -89 9 -2 -2 -5 -16 -6 -31 l-1 -28 -199 2 c-304
3 -573 17 -695 37 -14 3 -52 7 -85 10 -33 4 -71 8 -85 10 -51 9 -106 18 -125
21 -11 2 -37 6 -58 10 -33 7 -37 5 -31 -11 18 -56 28 -74 43 -79 16 -5 17 -27
18 -233 1 -125 2 -242 2 -260 1 -32 2 -33 44 -32 23 0 49 0 57 -1 8 0 50 1 93
2 42 1 79 0 82 -3 2 -2 30 -1 60 2 31 3 58 3 60 0 2 -3 29 -3 60 0 31 3 58 3
60 0 2 -4 27 -4 55 0 28 4 53 3 56 -2 3 -5 9 -6 13 -4 4 3 32 5 62 5 30 1 72
2 94 2 22 1 47 1 55 0 8 -1 35 -1 60 0 25 1 52 1 60 0 8 0 51 0 95 0 92 0 92
0 165 -1 l56 -1 -1 -462 0 -462 -290 -2 c-159 -1 -295 -2 -300 -2 -7 -1 -11
-94 -10 -283 l0 -282 297 0 c197 0 299 -4 301 -11 2 -5 3 -131 3 -280 l-1
-270 -300 -5 -301 -5 1 -280 0 -280 285 -1 c157 -1 292 -2 301 -3 13 -1 15
-61 15 -563 l-1 -563 301 -3 301 -2 0 560 c0 308 3 563 6 566 4 4 139 7 301 8
l295 1 0 -105 c0 -58 0 -313 0 -567 l1 -463 300 0 300 0 0 33 c1 17 1 863 0
1879 l0 1847 23 3 c12 2 34 1 50 -3 15 -4 27 -5 27 -1 0 4 21 6 47 4 27 -2 54
-3 61 -3 6 1 32 1 57 1 25 0 53 0 63 0 9 0 40 0 67 0 28 -1 56 -1 63 0 18 0
105 0 125 -1 9 0 18 -8 18 -17 1 -9 2 -854 3 -1877 l1 -1860 300 -3 300 -2 -1
1122 c0 618 1 1128 3 1134 2 7 101 10 301 9 l297 0 0 -1133 0 -1132 300 2 300
3 1 1120 c0 617 3 1125 7 1131 4 7 64 11 169 10 l162 -1 1 -1130 0 -1130 282
-3 283 -2 2 1287 c2 709 2 1347 0 1418 l-3 130 -449 -1 -450 -1 -1 96 c-2 414
0 824 5 829 4 3 293 6 644 6 l637 1 -3 238 c-3 251 -4 245 41 238 4 0 7 6 7
14 0 8 4 15 8 15 9 0 32 44 32 61 0 6 -8 8 -17 5 -16 -4 -80 -13 -153 -21 -14
-2 -50 -6 -80 -9 -30 -3 -75 -8 -100 -11 -25 -3 -79 -8 -120 -10 -41 -3 -97
-7 -125 -9 -27 -3 -197 -7 -377 -11 -327 -6 -328 -6 -328 15 0 18 -5 20 -43
17 -24 -2 -49 -7 -55 -11 -7 -4 -12 -5 -12 -3 0 2 -20 1 -45 -3 l-45 -7 2 171
3 171 50 3 c28 2 52 6 54 8 2 2 5 32 6 66 2 35 3 72 4 84 1 20 6 20 284 21
419 2 932 22 957 38 4 3 20 42 35 88 15 45 30 91 35 102 5 11 15 39 21 63 7
23 17 46 23 51 6 5 72 23 146 40 212 50 210 49 210 72 0 20 31 37 80 44 48 6
58 17 84 90 14 40 26 78 26 83 0 20 35 30 133 35 9 1 17 2 17 4 0 1 7 28 15
60 9 32 17 72 20 90 2 18 9 51 16 75 6 24 13 57 16 73 6 38 17 51 48 59 18 5
25 13 25 29 0 35 20 53 81 72 30 9 61 20 67 24 10 6 84 202 78 208 -1 2 -45
-11 -97 -28 -51 -17 -101 -33 -109 -35 -8 -2 -71 -20 -140 -39 -119 -34 -220
-61 -257 -70 -10 -2 -74 -18 -143 -35 -69 -16 -136 -32 -150 -35 -14 -2 -70
-14 -125 -26 -55 -12 -107 -22 -115 -23 -22 -4 -102 -18 -125 -22 -11 -3 -36
-7 -55 -10 -19 -3 -42 -7 -50 -9 -8 -2 -37 -7 -65 -10 -27 -4 -58 -9 -68 -11
-9 -3 -34 -7 -55 -9 -55 -6 -120 -14 -156 -21 -17 -3 -56 -7 -86 -9 -30 -2
-55 -5 -55 -5 0 -5 -147 -20 -340 -34 -49 -4 -110 -9 -135 -11 -25 -2 -90 -7
-145 -10 -55 -4 -122 -9 -150 -11 -27 -2 -88 -6 -135 -9 -47 -2 -116 -7 -155
-9 -190 -13 -265 -17 -368 -21 -276 -12 -385 -16 -420 -18 -20 -1 -37 1 -37 5
0 4 -10 4 -23 -1 -17 -7 -1174 -8 -1264 -2 -7 1 -19 1 -25 0 -17 0 -267 9
-383 15 -176 9 -341 18 -385 21 -25 2 -86 6 -137 9 -51 3 -118 8 -150 10 -137
12 -272 22 -398 30 -49 3 -108 8 -130 10 -22 3 -85 8 -140 12 -55 3 -118 8
-140 10 -22 2 -69 5 -105 8 -36 3 -94 8 -130 11 -36 4 -78 8 -95 10 -16 1 -48
6 -70 10 -22 4 -47 7 -55 7 -15 0 -323 43 -370 52 -14 3 -43 7 -65 11 -22 3
-71 12 -110 20 -38 8 -83 16 -100 19 -43 8 -292 62 -360 79 -18 5 -200 52
-235 62 -8 2 -71 20 -140 40 -69 20 -132 38 -140 40 -25 7 -74 23 -92 30 -15
6 -15 3 -3 -37z m3340 -1363 c518 -22 854 -28 1470 -29 308 0 703 4 877 8
l317 7 3 -73 3 -72 45 -11 c49 -12 46 -5 49 -115 3 -91 4 -212 2 -229 -1 -6
-11 -8 -23 -5 -40 8 -72 13 -124 19 -45 5 -52 4 -56 -13 -5 -18 -39 -18 -1094
-16 -599 2 -1247 3 -1440 3 l-351 1 2 36 2 37 -66 -7 c-36 -3 -78 -8 -93 -11
-15 -3 -30 -1 -33 5 -4 6 -6 63 -5 128 1 137 1 157 -2 173 -2 7 14 13 42 15
73 7 72 5 68 90 l-3 75 140 -5 c77 -3 199 -8 270 -11z m-104 -1035 c35 0 71 1
79 1 38 2 176 -1 228 -5 l23 -1 0 -260 c0 -143 0 -351 -1 -461 l0 -202 -300 1
c-268 0 -300 2 -301 16 0 9 -1 217 -2 462 l-2 446 93 1 c52 0 96 3 99 6 3 3 9
3 13 1 4 -3 36 -5 71 -5z m2310 -5 c7 -5 10 -4 6 1 -6 11 174 11 192 0 6 -4
11 -4 11 1 0 10 198 9 208 -1 7 -8 13 -879 6 -907 -4 -14 -39 -16 -299 -17
-220 0 -295 2 -296 11 -5 49 -3 913 2 917 11 8 156 3 170 -5z m-1981 -1772 l0
-283 -300 0 c-165 0 -300 3 -301 8 -1 9 -1 477 0 523 l1 35 300 0 300 0 0
-283z"/>
</g>
</svg>
